<!--?xml version="1.0" standalone="no"?-->
              <svg id="sw-js-blob-svg" viewBox="0 0 100 100" xmlns="http://www.w3.org/2000/svg" version="1.1">
                    <defs> 
                        <linearGradient id="sw-gradient" x1="0" x2="1" y1="1" y2="0">
                            <stop id="stop1" stop-color="rgba(255, 208.07, 70.633, 0.47)" offset="0%"></stop>
                            <stop id="stop2" stop-color="rgba(255, 201.108, 43.28, 0.4)" offset="100%"></stop>
                        </linearGradient>
                    </defs>
                <path fill="url(#sw-gradient)" d="M23.7,-27.8C31.8,-21.4,40.2,-15,43.2,-6.4C46.1,2.1,43.5,12.9,36.8,18.3C30.1,23.7,19.5,23.9,11,24.4C2.6,24.9,-3.5,25.8,-11.4,25.4C-19.2,25.1,-28.7,23.6,-31,18.4C-33.2,13.3,-28.3,4.6,-24.6,-2.2C-20.8,-9,-18.4,-14,-14.5,-21.1C-10.6,-28.3,-5.3,-37.6,1.2,-39.1C7.8,-40.6,15.5,-34.2,23.7,-27.8Z" width="100%" height="100%" transform="translate(50 50)" stroke-width="0" style="transition: all 0.3s ease 0s;" stroke="url(#sw-gradient)"></path>
              </svg>