<?xml version="1.0" encoding="utf-8"?>
<!-- Generator: Adobe Illustrator 23.0.3, SVG Export Plug-In . SVG Version: 6.00 Build 0)  -->
<svg version="1.1" id="Icons" xmlns="http://www.w3.org/2000/svg" xmlns:xlink="http://www.w3.org/1999/xlink" x="0px" y="0px"
	 viewBox="0 0 32 32" style="enable-background:new 0 0 32 32;" xml:space="preserve">
<style type="text/css">
	.st0{fill:none;stroke:#000000;stroke-width:2;stroke-linecap:round;stroke-linejoin:round;stroke-miterlimit:10;}
</style>
<path d="M11.9,26.3C11.3,29,8.8,31,6,31c0,0,0,0,0,0c-3.1,0-5.8-2.6-5.9-5.5c-0.1-2,0.5-3.8,1.8-5.4L2,19.7c0.8-1,1.5-1.9,1.9-3
	c0.1-0.2,0.3-0.4,0.4-0.5c0.4-0.3,1-0.2,1.3,0.1c1.1,1.2,1.7,2.3,1.9,3.6c0.2,0.9,0.2,1.9,0.3,2.8l0,0.5c0.7-0.1,1.2-0.4,1.5-1
	l0.2-0.3c0.2-0.3,0.5-0.5,0.9-0.5c0.4,0,0.7,0.2,0.9,0.6C12,23.2,12.2,24.9,11.9,26.3z"/>
<path d="M29,8h-8.9l-2.3-3.5C17.7,4.2,17.3,4,17,4H7C5.3,4,4,5.3,4,7v7.2c1.1-0.3,2.3,0,3.1,0.8c1.3,1.4,2.1,2.9,2.4,4.5
	c0.3-0.1,0.7-0.2,1.1-0.2c1.1,0,2.1,0.7,2.6,1.7c0.8,1.7,1.1,3.8,0.7,5.7v0c-0.1,0.4-0.2,0.9-0.4,1.3H29c1.7,0,3-1.3,3-3V11
	C32,9.3,30.7,8,29,8z M30,23.6L21.4,10H29c0.6,0,1,0.4,1,1V23.6z"/>
</svg>
