<svg id="eFUEnG56CYZ1" xmlns="http://www.w3.org/2000/svg" xmlns:xlink="http://www.w3.org/1999/xlink" viewBox="0 0 640 480" shape-rendering="geometricPrecision" text-rendering="geometricPrecision"><path id="eFUEnG56CYZ2" d="M0,0C62.185789,75.057617,190.129031,91.194602,208.703278,96.86136C245.121809,103.226826,305.969533,104.961835,350.231346,104.961835C389.716304,103.176057,458.22281,93.454554,485.982757,85.308048C531.700874,75.054138,608.070681,43.898757,639.999999,-0.000001L639.999999,479.999999C606.809047,436.987147,532.21392,406.886936,485.982757,394.521506C461.730965,383.768599,383.772856,374.372392,350.231346,374.372392C310.29569,372.873072,240.253498,378.004281,208.703278,383.768599C134.802224,391.457796,31.003106,435.498522,-0.000001,479.999999L0,0Z" transform="matrix(1 0 0 1 0.000001 0.000001)" fill="rgb(49,53,54)" stroke="rgb(63,87,135)" stroke-width="1.28"/></svg>