<?xml version="1.0" encoding="utf-8"?>
<!-- Generator: Adobe Illustrator 23.0.3, SVG Export Plug-In . SVG Version: 6.00 Build 0)  -->
<svg version="1.1" id="Icons" xmlns="http://www.w3.org/2000/svg" xmlns:xlink="http://www.w3.org/1999/xlink" x="0px" y="0px"
	 viewBox="0 0 32 32" style="enable-background:new 0 0 32 32;" xml:space="preserve">

<style type="text/css">
	.st0{fill:none;stroke:url(#linear);stroke-width:2;stroke-linecap:round;stroke-linejoin:round;stroke-miterlimit:10;}
</style>
<defs>
<linearGradient id="linear" x1="0%" y1="0%" x2="100%" y2="0%" gradientUnits="userSpaceOnUse">
		<stop offset="0%"   stop-color="#05a" stop-opacity="0.5" />
		<stop offset="100%" stop-color="#0a5" stop-opacity="1.0" />
	</linearGradient>
</defs>
<path class="st0" d="M28,30H4c-1.1,0-2-0.9-2-2V4c0-1.1,0.9-2,2-2h24c1.1,0,2,0.9,2,2v24C30,29.1,29.1,30,28,30z"/>
<line stroke="url(#linear)" class="st0" x1="20" y1="2" x2="20" y2="30" />
<polyline class="st0" points="27,24 25,26 23,24 "/>
<polyline class="st0" points="23,8 25,6 27,8 "/>
<line stroke="url(#linear)" class="st0" x1="6" y1="9" x2="16" y2="9"/>
<line stroke="url(#linear)" class="st0" x1="6" y1="13" x2="12" y2="13"/>
<line stroke="url(#linear)" class="st0" x1="6" y1="17" x2="12" y2="17"/>
</svg>
