<?xml version="1.0" encoding="UTF-8" standalone="no"?> <svg width="512" height="512" viewBox="0 0 512 512" fill="none" xmlns="http://www.w3.org/2000/svg">
<defs>
		<linearGradient id="linear" x1="0%" y1="0%" x2="100%" y2="0%">
			<stop offset="0%"   stop-color="#05a" stop-opacity="0.5" />
			<stop offset="100%" stop-color="#0a5" stop-opacity="1.0" />
		</linearGradient>
 	</defs>
<path fill-rule="evenodd" clip-rule="evenodd" d="M128 32C74.9807 32 32 74.9807 32 128V384C32 437.019 74.9807 480 128 480H384C437.019 480 480 437.019 480 384V128C480 74.9807 437.019 32 384 32H128ZM168 108C148.118 108 132 124.118 132 144V384C132 395.046 140.954 404 152 404C163.046 404 172 395.046 172 384V276H336C347.046 276 356 267.046 356 256C356 244.954 347.046 236 336 236H172V148H360C371.046 148 380 139.046 380 128C380 116.954 371.046 108 360 108H168Z" fill="#fff"/>
</svg>
