<?xml version="1.0" standalone="no"?>
<svg xmlns:xlink="http://www.w3.org/1999/xlink" id="wave" style="transform:rotate(0deg); transition: 0.3s" viewBox="0 0 1440 180" version="1.1" xmlns="http://www.w3.org/2000/svg"><defs><linearGradient id="sw-gradient-0" x1="0" x2="0" y1="1" y2="0"><stop stop-color="rgba(57, 64, 71, 1)" offset="0%"/><stop stop-color="rgba(139, 139, 139, 1)" offset="100%"/></linearGradient></defs><path style="transform:translate(0, 0px); opacity:1" fill="url(#sw-gradient-0)" d="M0,0L80,15C160,30,320,60,480,84C640,108,800,126,960,129C1120,132,1280,120,1440,108C1600,96,1760,84,1920,72C2080,60,2240,48,2400,36C2560,24,2720,12,2880,9C3040,6,3200,12,3360,21C3520,30,3680,42,3840,39C4000,36,4160,18,4320,30C4480,42,4640,84,4800,111C4960,138,5120,150,5280,129C5440,108,5600,54,5760,39C5920,24,6080,48,6240,48C6400,48,6560,24,6720,30C6880,36,7040,72,7200,78C7360,84,7520,60,7680,51C7840,42,8000,48,8160,69C8320,90,8480,126,8640,123C8800,120,8960,78,9120,60C9280,42,9440,48,9600,69C9760,90,9920,126,10080,126C10240,126,10400,90,10560,72C10720,54,10880,54,11040,54C11200,54,11360,54,11440,54L11520,54L11520,180L11440,180C11360,180,11200,180,11040,180C10880,180,10720,180,10560,180C10400,180,10240,180,10080,180C9920,180,9760,180,9600,180C9440,180,9280,180,9120,180C8960,180,8800,180,8640,180C8480,180,8320,180,8160,180C8000,180,7840,180,7680,180C7520,180,7360,180,7200,180C7040,180,6880,180,6720,180C6560,180,6400,180,6240,180C6080,180,5920,180,5760,180C5600,180,5440,180,5280,180C5120,180,4960,180,4800,180C4640,180,4480,180,4320,180C4160,180,4000,180,3840,180C3680,180,3520,180,3360,180C3200,180,3040,180,2880,180C2720,180,2560,180,2400,180C2240,180,2080,180,1920,180C1760,180,1600,180,1440,180C1280,180,1120,180,960,180C800,180,640,180,480,180C320,180,160,180,80,180L0,180Z"/><defs><linearGradient id="sw-gradient-1" x1="0" x2="0" y1="1" y2="0"><stop stop-color="rgba(57, 64, 71, 1)" offset="0%"/><stop stop-color="rgba(57, 64, 71, 1)" offset="100%"/></linearGradient></defs><path style="transform:translate(0, 50px); opacity:0.9" fill="url(#sw-gradient-1)" d="M0,144L80,144C160,144,320,144,480,126C640,108,800,72,960,57C1120,42,1280,48,1440,45C1600,42,1760,30,1920,45C2080,60,2240,102,2400,105C2560,108,2720,72,2880,48C3040,24,3200,12,3360,27C3520,42,3680,84,3840,93C4000,102,4160,78,4320,66C4480,54,4640,54,4800,66C4960,78,5120,102,5280,96C5440,90,5600,54,5760,51C5920,48,6080,78,6240,96C6400,114,6560,120,6720,105C6880,90,7040,54,7200,45C7360,36,7520,54,7680,54C7840,54,8000,36,8160,45C8320,54,8480,90,8640,114C8800,138,8960,150,9120,135C9280,120,9440,78,9600,60C9760,42,9920,48,10080,42C10240,36,10400,18,10560,15C10720,12,10880,24,11040,27C11200,30,11360,24,11440,21L11520,18L11520,180L11440,180C11360,180,11200,180,11040,180C10880,180,10720,180,10560,180C10400,180,10240,180,10080,180C9920,180,9760,180,9600,180C9440,180,9280,180,9120,180C8960,180,8800,180,8640,180C8480,180,8320,180,8160,180C8000,180,7840,180,7680,180C7520,180,7360,180,7200,180C7040,180,6880,180,6720,180C6560,180,6400,180,6240,180C6080,180,5920,180,5760,180C5600,180,5440,180,5280,180C5120,180,4960,180,4800,180C4640,180,4480,180,4320,180C4160,180,4000,180,3840,180C3680,180,3520,180,3360,180C3200,180,3040,180,2880,180C2720,180,2560,180,2400,180C2240,180,2080,180,1920,180C1760,180,1600,180,1440,180C1280,180,1120,180,960,180C800,180,640,180,480,180C320,180,160,180,80,180L0,180Z"/></svg>