<?xml version="1.0" standalone="no"?>
<svg xmlns:xlink="http://www.w3.org/1999/xlink" id="wave" style="transform:rotate(0deg); transition: 0.3s" viewBox="0 0 1440 180" version="1.1" xmlns="http://www.w3.org/2000/svg"><defs><linearGradient id="sw-gradient-0" x1="0" x2="0" y1="1" y2="0"><stop stop-color="rgba(57, 64, 71, 1)" offset="0%"/><stop stop-color="rgba(139, 139, 139, 1)" offset="100%"/></linearGradient></defs><path style="transform:translate(0, 0px); opacity:1" fill="url(#sw-gradient-0)" d="M0,72L80,87C160,102,320,132,480,120C640,108,800,54,960,36C1120,18,1280,36,1440,60C1600,84,1760,114,1920,129C2080,144,2240,144,2400,147C2560,150,2720,156,2880,135C3040,114,3200,66,3360,57C3520,48,3680,78,3840,84C4000,90,4160,72,4320,72C4480,72,4640,90,4800,105C4960,120,5120,132,5280,126C5440,120,5600,96,5760,81C5920,66,6080,60,6240,57C6400,54,6560,54,6720,48C6880,42,7040,30,7200,24C7360,18,7520,18,7680,18C7840,18,8000,18,8160,39C8320,60,8480,102,8640,120C8800,138,8960,132,9120,135C9280,138,9440,150,9600,153C9760,156,9920,150,10080,126C10240,102,10400,60,10560,57C10720,54,10880,90,11040,114C11200,138,11360,150,11440,156L11520,162L11520,180L11440,180C11360,180,11200,180,11040,180C10880,180,10720,180,10560,180C10400,180,10240,180,10080,180C9920,180,9760,180,9600,180C9440,180,9280,180,9120,180C8960,180,8800,180,8640,180C8480,180,8320,180,8160,180C8000,180,7840,180,7680,180C7520,180,7360,180,7200,180C7040,180,6880,180,6720,180C6560,180,6400,180,6240,180C6080,180,5920,180,5760,180C5600,180,5440,180,5280,180C5120,180,4960,180,4800,180C4640,180,4480,180,4320,180C4160,180,4000,180,3840,180C3680,180,3520,180,3360,180C3200,180,3040,180,2880,180C2720,180,2560,180,2400,180C2240,180,2080,180,1920,180C1760,180,1600,180,1440,180C1280,180,1120,180,960,180C800,180,640,180,480,180C320,180,160,180,80,180L0,180Z"/><defs><linearGradient id="sw-gradient-1" x1="0" x2="0" y1="1" y2="0"><stop stop-color="rgba(57, 64, 71, 1)" offset="0%"/><stop stop-color="rgba(57, 64, 71, 1)" offset="100%"/></linearGradient></defs><path style="transform:translate(0, 50px); opacity:0.9" fill="url(#sw-gradient-1)" d="M0,144L80,135C160,126,320,108,480,87C640,66,800,42,960,51C1120,60,1280,102,1440,102C1600,102,1760,60,1920,39C2080,18,2240,18,2400,24C2560,30,2720,42,2880,45C3040,48,3200,42,3360,36C3520,30,3680,24,3840,18C4000,12,4160,6,4320,6C4480,6,4640,12,4800,36C4960,60,5120,102,5280,111C5440,120,5600,96,5760,81C5920,66,6080,60,6240,66C6400,72,6560,90,6720,84C6880,78,7040,48,7200,54C7360,60,7520,102,7680,99C7840,96,8000,48,8160,45C8320,42,8480,84,8640,105C8800,126,8960,126,9120,126C9280,126,9440,126,9600,114C9760,102,9920,78,10080,81C10240,84,10400,114,10560,114C10720,114,10880,84,11040,84C11200,84,11360,114,11440,129L11520,144L11520,180L11440,180C11360,180,11200,180,11040,180C10880,180,10720,180,10560,180C10400,180,10240,180,10080,180C9920,180,9760,180,9600,180C9440,180,9280,180,9120,180C8960,180,8800,180,8640,180C8480,180,8320,180,8160,180C8000,180,7840,180,7680,180C7520,180,7360,180,7200,180C7040,180,6880,180,6720,180C6560,180,6400,180,6240,180C6080,180,5920,180,5760,180C5600,180,5440,180,5280,180C5120,180,4960,180,4800,180C4640,180,4480,180,4320,180C4160,180,4000,180,3840,180C3680,180,3520,180,3360,180C3200,180,3040,180,2880,180C2720,180,2560,180,2400,180C2240,180,2080,180,1920,180C1760,180,1600,180,1440,180C1280,180,1120,180,960,180C800,180,640,180,480,180C320,180,160,180,80,180L0,180Z"/></svg>