<?xml version="1.0" standalone="no"?>
<svg xmlns:xlink="http://www.w3.org/1999/xlink" id="wave" style="transform:rotate(0deg); transition: 0.3s" viewBox="0 0 1440 250" version="1.1" xmlns="http://www.w3.org/2000/svg"><defs><linearGradient id="sw-gradient-0" x1="0" x2="0" y1="1" y2="0"><stop stop-color="rgba(57, 64, 71, 1)" offset="0%"/><stop stop-color="rgba(139, 139, 139, 1)" offset="100%"/></linearGradient></defs><path style="transform:translate(0, 0px); opacity:1" fill="url(#sw-gradient-0)" d="M0,50L80,79.2C160,108,320,167,480,187.5C640,208,800,192,960,166.7C1120,142,1280,108,1440,112.5C1600,117,1760,158,1920,158.3C2080,158,2240,117,2400,95.8C2560,75,2720,75,2880,75C3040,75,3200,75,3360,87.5C3520,100,3680,125,3840,129.2C4000,133,4160,117,4320,120.8C4480,125,4640,150,4800,145.8C4960,142,5120,108,5280,104.2C5440,100,5600,125,5760,129.2C5920,133,6080,117,6240,112.5C6400,108,6560,117,6720,125C6880,133,7040,142,7200,125C7360,108,7520,67,7680,45.8C7840,25,8000,25,8160,33.3C8320,42,8480,58,8640,83.3C8800,108,8960,142,9120,133.3C9280,125,9440,75,9600,58.3C9760,42,9920,58,10080,91.7C10240,125,10400,175,10560,170.8C10720,167,10880,108,11040,104.2C11200,100,11360,150,11440,175L11520,200L11520,250L11440,250C11360,250,11200,250,11040,250C10880,250,10720,250,10560,250C10400,250,10240,250,10080,250C9920,250,9760,250,9600,250C9440,250,9280,250,9120,250C8960,250,8800,250,8640,250C8480,250,8320,250,8160,250C8000,250,7840,250,7680,250C7520,250,7360,250,7200,250C7040,250,6880,250,6720,250C6560,250,6400,250,6240,250C6080,250,5920,250,5760,250C5600,250,5440,250,5280,250C5120,250,4960,250,4800,250C4640,250,4480,250,4320,250C4160,250,4000,250,3840,250C3680,250,3520,250,3360,250C3200,250,3040,250,2880,250C2720,250,2560,250,2400,250C2240,250,2080,250,1920,250C1760,250,1600,250,1440,250C1280,250,1120,250,960,250C800,250,640,250,480,250C320,250,160,250,80,250L0,250Z"/><defs><linearGradient id="sw-gradient-1" x1="0" x2="0" y1="1" y2="0"><stop stop-color="rgba(57, 64, 71, 1)" offset="0%"/><stop stop-color="rgba(57, 64, 71, 1)" offset="100%"/></linearGradient></defs><path style="transform:translate(0, 50px); opacity:0.9" fill="url(#sw-gradient-1)" d="M0,175L80,183.3C160,192,320,208,480,212.5C640,217,800,208,960,170.8C1120,133,1280,67,1440,70.8C1600,75,1760,150,1920,166.7C2080,183,2240,142,2400,116.7C2560,92,2720,83,2880,100C3040,117,3200,158,3360,166.7C3520,175,3680,150,3840,154.2C4000,158,4160,192,4320,183.3C4480,175,4640,125,4800,95.8C4960,67,5120,58,5280,83.3C5440,108,5600,167,5760,191.7C5920,217,6080,208,6240,187.5C6400,167,6560,133,6720,129.2C6880,125,7040,150,7200,150C7360,150,7520,125,7680,125C7840,125,8000,150,8160,150C8320,150,8480,125,8640,120.8C8800,117,8960,133,9120,141.7C9280,150,9440,150,9600,154.2C9760,158,9920,167,10080,145.8C10240,125,10400,75,10560,54.2C10720,33,10880,42,11040,66.7C11200,92,11360,133,11440,154.2L11520,175L11520,250L11440,250C11360,250,11200,250,11040,250C10880,250,10720,250,10560,250C10400,250,10240,250,10080,250C9920,250,9760,250,9600,250C9440,250,9280,250,9120,250C8960,250,8800,250,8640,250C8480,250,8320,250,8160,250C8000,250,7840,250,7680,250C7520,250,7360,250,7200,250C7040,250,6880,250,6720,250C6560,250,6400,250,6240,250C6080,250,5920,250,5760,250C5600,250,5440,250,5280,250C5120,250,4960,250,4800,250C4640,250,4480,250,4320,250C4160,250,4000,250,3840,250C3680,250,3520,250,3360,250C3200,250,3040,250,2880,250C2720,250,2560,250,2400,250C2240,250,2080,250,1920,250C1760,250,1600,250,1440,250C1280,250,1120,250,960,250C800,250,640,250,480,250C320,250,160,250,80,250L0,250Z"/></svg>