<?xml version="1.0" standalone="no"?>
<svg xmlns:xlink="http://www.w3.org/1999/xlink" id="wave" style="transform:rotate(0deg); transition: 0.3s" viewBox="0 0 1440 180" version="1.1" xmlns="http://www.w3.org/2000/svg"><defs><linearGradient id="sw-gradient-0" x1="0" x2="0" y1="1" y2="0"><stop stop-color="rgba(57, 64, 71, 1)" offset="0%"/><stop stop-color="rgba(139, 139, 139, 1)" offset="100%"/></linearGradient></defs><path style="transform:translate(0, 0px); opacity:1" fill="url(#sw-gradient-0)" d="M0,90L80,75C160,60,320,30,480,27C640,24,800,48,960,69C1120,90,1280,108,1440,117C1600,126,1760,126,1920,132C2080,138,2240,150,2400,129C2560,108,2720,54,2880,45C3040,36,3200,72,3360,87C3520,102,3680,96,3840,102C4000,108,4160,126,4320,120C4480,114,4640,84,4800,78C4960,72,5120,90,5280,90C5440,90,5600,72,5760,72C5920,72,6080,90,6240,93C6400,96,6560,84,6720,69C6880,54,7040,36,7200,48C7360,60,7520,102,7680,111C7840,120,8000,96,8160,75C8320,54,8480,36,8640,48C8800,60,8960,102,9120,99C9280,96,9440,48,9600,39C9760,30,9920,60,10080,72C10240,84,10400,78,10560,75C10720,72,10880,72,11040,78C11200,84,11360,96,11440,102L11520,108L11520,180L11440,180C11360,180,11200,180,11040,180C10880,180,10720,180,10560,180C10400,180,10240,180,10080,180C9920,180,9760,180,9600,180C9440,180,9280,180,9120,180C8960,180,8800,180,8640,180C8480,180,8320,180,8160,180C8000,180,7840,180,7680,180C7520,180,7360,180,7200,180C7040,180,6880,180,6720,180C6560,180,6400,180,6240,180C6080,180,5920,180,5760,180C5600,180,5440,180,5280,180C5120,180,4960,180,4800,180C4640,180,4480,180,4320,180C4160,180,4000,180,3840,180C3680,180,3520,180,3360,180C3200,180,3040,180,2880,180C2720,180,2560,180,2400,180C2240,180,2080,180,1920,180C1760,180,1600,180,1440,180C1280,180,1120,180,960,180C800,180,640,180,480,180C320,180,160,180,80,180L0,180Z"/><defs><linearGradient id="sw-gradient-1" x1="0" x2="0" y1="1" y2="0"><stop stop-color="rgba(57, 64, 71, 1)" offset="0%"/><stop stop-color="rgba(57, 64, 71, 1)" offset="100%"/></linearGradient></defs><path style="transform:translate(0, 50px); opacity:0.9" fill="url(#sw-gradient-1)" d="M0,90L80,75C160,60,320,30,480,33C640,36,800,72,960,78C1120,84,1280,60,1440,60C1600,60,1760,84,1920,81C2080,78,2240,48,2400,48C2560,48,2720,78,2880,90C3040,102,3200,96,3360,84C3520,72,3680,54,3840,66C4000,78,4160,120,4320,132C4480,144,4640,126,4800,102C4960,78,5120,48,5280,48C5440,48,5600,78,5760,87C5920,96,6080,84,6240,93C6400,102,6560,132,6720,126C6880,120,7040,78,7200,75C7360,72,7520,108,7680,111C7840,114,8000,84,8160,60C8320,36,8480,18,8640,27C8800,36,8960,72,9120,84C9280,96,9440,84,9600,72C9760,60,9920,48,10080,54C10240,60,10400,84,10560,99C10720,114,10880,120,11040,129C11200,138,11360,150,11440,156L11520,162L11520,180L11440,180C11360,180,11200,180,11040,180C10880,180,10720,180,10560,180C10400,180,10240,180,10080,180C9920,180,9760,180,9600,180C9440,180,9280,180,9120,180C8960,180,8800,180,8640,180C8480,180,8320,180,8160,180C8000,180,7840,180,7680,180C7520,180,7360,180,7200,180C7040,180,6880,180,6720,180C6560,180,6400,180,6240,180C6080,180,5920,180,5760,180C5600,180,5440,180,5280,180C5120,180,4960,180,4800,180C4640,180,4480,180,4320,180C4160,180,4000,180,3840,180C3680,180,3520,180,3360,180C3200,180,3040,180,2880,180C2720,180,2560,180,2400,180C2240,180,2080,180,1920,180C1760,180,1600,180,1440,180C1280,180,1120,180,960,180C800,180,640,180,480,180C320,180,160,180,80,180L0,180Z"/></svg>