<?xml version="1.0" standalone="no"?>
<svg xmlns:xlink="http://www.w3.org/1999/xlink" id="wave" style="transform:rotate(180deg); transition: 0.3s" viewBox="0 0 1440 180" version="1.1" xmlns="http://www.w3.org/2000/svg"><defs><linearGradient id="sw-gradient-0" x1="0" x2="0" y1="1" y2="0"><stop stop-color="rgba(57, 64, 71, 1)" offset="0%"/><stop stop-color="rgba(139, 139, 139, 1)" offset="100%"/></linearGradient></defs><path style="transform:translate(0, 0px); opacity:1" fill="url(#sw-gradient-0)" d="M0,144L120,144C240,144,480,144,720,120C960,96,1200,48,1440,45C1680,42,1920,84,2160,87C2400,90,2640,54,2880,36C3120,18,3360,18,3600,18C3840,18,4080,18,4320,24C4560,30,4800,42,5040,45C5280,48,5520,42,5760,42C6000,42,6240,48,6480,42C6720,36,6960,18,7200,24C7440,30,7680,60,7920,60C8160,60,8400,30,8640,39C8880,48,9120,96,9360,111C9600,126,9840,108,10080,99C10320,90,10560,90,10800,84C11040,78,11280,66,11520,69C11760,72,12000,90,12240,102C12480,114,12720,120,12960,126C13200,132,13440,138,13680,144C13920,150,14160,156,14400,144C14640,132,14880,102,15120,99C15360,96,15600,120,15840,123C16080,126,16320,108,16560,105C16800,102,17040,114,17160,120L17280,126L17280,180L17160,180C17040,180,16800,180,16560,180C16320,180,16080,180,15840,180C15600,180,15360,180,15120,180C14880,180,14640,180,14400,180C14160,180,13920,180,13680,180C13440,180,13200,180,12960,180C12720,180,12480,180,12240,180C12000,180,11760,180,11520,180C11280,180,11040,180,10800,180C10560,180,10320,180,10080,180C9840,180,9600,180,9360,180C9120,180,8880,180,8640,180C8400,180,8160,180,7920,180C7680,180,7440,180,7200,180C6960,180,6720,180,6480,180C6240,180,6000,180,5760,180C5520,180,5280,180,5040,180C4800,180,4560,180,4320,180C4080,180,3840,180,3600,180C3360,180,3120,180,2880,180C2640,180,2400,180,2160,180C1920,180,1680,180,1440,180C1200,180,960,180,720,180C480,180,240,180,120,180L0,180Z"/><defs><linearGradient id="sw-gradient-1" x1="0" x2="0" y1="1" y2="0"><stop stop-color="rgba(57, 64, 71, 1)" offset="0%"/><stop stop-color="rgba(57, 64, 71, 1)" offset="100%"/></linearGradient></defs><path style="transform:translate(0, 50px); opacity:0.9" fill="url(#sw-gradient-1)" d="M0,144L120,120C240,96,480,48,720,39C960,30,1200,60,1440,63C1680,66,1920,42,2160,27C2400,12,2640,6,2880,18C3120,30,3360,60,3600,87C3840,114,4080,138,4320,150C4560,162,4800,162,5040,156C5280,150,5520,138,5760,126C6000,114,6240,102,6480,90C6720,78,6960,66,7200,57C7440,48,7680,42,7920,39C8160,36,8400,36,8640,42C8880,48,9120,60,9360,81C9600,102,9840,132,10080,138C10320,144,10560,126,10800,120C11040,114,11280,120,11520,102C11760,84,12000,42,12240,30C12480,18,12720,36,12960,63C13200,90,13440,126,13680,135C13920,144,14160,126,14400,99C14640,72,14880,36,15120,42C15360,48,15600,96,15840,105C16080,114,16320,84,16560,87C16800,90,17040,126,17160,144L17280,162L17280,180L17160,180C17040,180,16800,180,16560,180C16320,180,16080,180,15840,180C15600,180,15360,180,15120,180C14880,180,14640,180,14400,180C14160,180,13920,180,13680,180C13440,180,13200,180,12960,180C12720,180,12480,180,12240,180C12000,180,11760,180,11520,180C11280,180,11040,180,10800,180C10560,180,10320,180,10080,180C9840,180,9600,180,9360,180C9120,180,8880,180,8640,180C8400,180,8160,180,7920,180C7680,180,7440,180,7200,180C6960,180,6720,180,6480,180C6240,180,6000,180,5760,180C5520,180,5280,180,5040,180C4800,180,4560,180,4320,180C4080,180,3840,180,3600,180C3360,180,3120,180,2880,180C2640,180,2400,180,2160,180C1920,180,1680,180,1440,180C1200,180,960,180,720,180C480,180,240,180,120,180L0,180Z"/></svg>