<?xml version="1.0" standalone="no"?>
<svg xmlns:xlink="http://www.w3.org/1999/xlink" id="wave" style="transform:rotate(180deg); transition: 0.3s" viewBox="0 0 1440 180" version="1.1" xmlns="http://www.w3.org/2000/svg"><defs><linearGradient id="sw-gradient-0" x1="0" x2="0" y1="1" y2="0"><stop stop-color="rgba(57, 64, 71, 1)" offset="0%"/><stop stop-color="rgba(139, 139, 139, 1)" offset="100%"/></linearGradient></defs><path style="transform:translate(0, 0px); opacity:1" fill="url(#sw-gradient-0)" d="M0,108L80,99C160,90,320,72,480,75C640,78,800,102,960,120C1120,138,1280,150,1440,135C1600,120,1760,78,1920,72C2080,66,2240,96,2400,111C2560,126,2720,126,2880,132C3040,138,3200,150,3360,156C3520,162,3680,162,3840,156C4000,150,4160,138,4320,114C4480,90,4640,54,4800,48C4960,42,5120,66,5280,69C5440,72,5600,54,5760,63C5920,72,6080,108,6240,105C6400,102,6560,60,6720,51C6880,42,7040,66,7200,81C7360,96,7520,102,7680,93C7840,84,8000,60,8160,60C8320,60,8480,84,8640,96C8800,108,8960,108,9120,99C9280,90,9440,72,9600,57C9760,42,9920,30,10080,48C10240,66,10400,114,10560,135C10720,156,10880,150,11040,132C11200,114,11360,84,11440,69L11520,54L11520,180L11440,180C11360,180,11200,180,11040,180C10880,180,10720,180,10560,180C10400,180,10240,180,10080,180C9920,180,9760,180,9600,180C9440,180,9280,180,9120,180C8960,180,8800,180,8640,180C8480,180,8320,180,8160,180C8000,180,7840,180,7680,180C7520,180,7360,180,7200,180C7040,180,6880,180,6720,180C6560,180,6400,180,6240,180C6080,180,5920,180,5760,180C5600,180,5440,180,5280,180C5120,180,4960,180,4800,180C4640,180,4480,180,4320,180C4160,180,4000,180,3840,180C3680,180,3520,180,3360,180C3200,180,3040,180,2880,180C2720,180,2560,180,2400,180C2240,180,2080,180,1920,180C1760,180,1600,180,1440,180C1280,180,1120,180,960,180C800,180,640,180,480,180C320,180,160,180,80,180L0,180Z"/><defs><linearGradient id="sw-gradient-1" x1="0" x2="0" y1="1" y2="0"><stop stop-color="rgba(57, 64, 71, 1)" offset="0%"/><stop stop-color="rgba(57, 64, 71, 1)" offset="100%"/></linearGradient></defs><path style="transform:translate(0, 50px); opacity:0.9" fill="url(#sw-gradient-1)" d="M0,54L80,63C160,72,320,90,480,81C640,72,800,36,960,33C1120,30,1280,60,1440,87C1600,114,1760,138,1920,132C2080,126,2240,90,2400,87C2560,84,2720,114,2880,120C3040,126,3200,108,3360,87C3520,66,3680,42,3840,48C4000,54,4160,90,4320,99C4480,108,4640,90,4800,75C4960,60,5120,48,5280,48C5440,48,5600,60,5760,72C5920,84,6080,96,6240,111C6400,126,6560,144,6720,126C6880,108,7040,54,7200,45C7360,36,7520,72,7680,87C7840,102,8000,96,8160,84C8320,72,8480,54,8640,48C8800,42,8960,48,9120,45C9280,42,9440,30,9600,48C9760,66,9920,114,10080,129C10240,144,10400,126,10560,108C10720,90,10880,72,11040,75C11200,78,11360,102,11440,114L11520,126L11520,180L11440,180C11360,180,11200,180,11040,180C10880,180,10720,180,10560,180C10400,180,10240,180,10080,180C9920,180,9760,180,9600,180C9440,180,9280,180,9120,180C8960,180,8800,180,8640,180C8480,180,8320,180,8160,180C8000,180,7840,180,7680,180C7520,180,7360,180,7200,180C7040,180,6880,180,6720,180C6560,180,6400,180,6240,180C6080,180,5920,180,5760,180C5600,180,5440,180,5280,180C5120,180,4960,180,4800,180C4640,180,4480,180,4320,180C4160,180,4000,180,3840,180C3680,180,3520,180,3360,180C3200,180,3040,180,2880,180C2720,180,2560,180,2400,180C2240,180,2080,180,1920,180C1760,180,1600,180,1440,180C1280,180,1120,180,960,180C800,180,640,180,480,180C320,180,160,180,80,180L0,180Z"/></svg>