<?xml version="1.0" standalone="no"?>
<svg xmlns:xlink="http://www.w3.org/1999/xlink" id="wave" style="transform:rotate(180deg); transition: 0.3s" viewBox="0 0 1440 180" version="1.1" xmlns="http://www.w3.org/2000/svg"><defs><linearGradient id="sw-gradient-0" x1="0" x2="0" y1="1" y2="0"><stop stop-color="rgba(57, 64, 71, 1)" offset="0%"/><stop stop-color="rgba(139, 139, 139, 1)" offset="100%"/></linearGradient></defs><path style="transform:translate(0, 0px); opacity:1" fill="url(#sw-gradient-0)" d="M0,144L80,129C160,114,320,84,480,81C640,78,800,102,960,117C1120,132,1280,138,1440,126C1600,114,1760,84,1920,87C2080,90,2240,126,2400,117C2560,108,2720,54,2880,51C3040,48,3200,96,3360,99C3520,102,3680,60,3840,42C4000,24,4160,30,4320,36C4480,42,4640,48,4800,60C4960,72,5120,90,5280,108C5440,126,5600,144,5760,126C5920,108,6080,54,6240,30C6400,6,6560,12,6720,39C6880,66,7040,114,7200,117C7360,120,7520,78,7680,75C7840,72,8000,108,8160,102C8320,96,8480,48,8640,36C8800,24,8960,48,9120,57C9280,66,9440,60,9600,72C9760,84,9920,114,10080,108C10240,102,10400,60,10560,42C10720,24,10880,30,11040,45C11200,60,11360,84,11440,96L11520,108L11520,180L11440,180C11360,180,11200,180,11040,180C10880,180,10720,180,10560,180C10400,180,10240,180,10080,180C9920,180,9760,180,9600,180C9440,180,9280,180,9120,180C8960,180,8800,180,8640,180C8480,180,8320,180,8160,180C8000,180,7840,180,7680,180C7520,180,7360,180,7200,180C7040,180,6880,180,6720,180C6560,180,6400,180,6240,180C6080,180,5920,180,5760,180C5600,180,5440,180,5280,180C5120,180,4960,180,4800,180C4640,180,4480,180,4320,180C4160,180,4000,180,3840,180C3680,180,3520,180,3360,180C3200,180,3040,180,2880,180C2720,180,2560,180,2400,180C2240,180,2080,180,1920,180C1760,180,1600,180,1440,180C1280,180,1120,180,960,180C800,180,640,180,480,180C320,180,160,180,80,180L0,180Z"/><defs><linearGradient id="sw-gradient-1" x1="0" x2="0" y1="1" y2="0"><stop stop-color="rgba(57, 64, 71, 1)" offset="0%"/><stop stop-color="rgba(57, 64, 71, 1)" offset="100%"/></linearGradient></defs><path style="transform:translate(0, 50px); opacity:0.9" fill="url(#sw-gradient-1)" d="M0,0L80,15C160,30,320,60,480,81C640,102,800,114,960,114C1120,114,1280,102,1440,87C1600,72,1760,54,1920,54C2080,54,2240,72,2400,93C2560,114,2720,138,2880,150C3040,162,3200,162,3360,135C3520,108,3680,54,3840,48C4000,42,4160,84,4320,105C4480,126,4640,126,4800,126C4960,126,5120,126,5280,114C5440,102,5600,78,5760,78C5920,78,6080,102,6240,108C6400,114,6560,102,6720,81C6880,60,7040,30,7200,36C7360,42,7520,84,7680,87C7840,90,8000,54,8160,42C8320,30,8480,42,8640,48C8800,54,8960,54,9120,69C9280,84,9440,114,9600,114C9760,114,9920,84,10080,81C10240,78,10400,102,10560,117C10720,132,10880,138,11040,135C11200,132,11360,120,11440,114L11520,108L11520,180L11440,180C11360,180,11200,180,11040,180C10880,180,10720,180,10560,180C10400,180,10240,180,10080,180C9920,180,9760,180,9600,180C9440,180,9280,180,9120,180C8960,180,8800,180,8640,180C8480,180,8320,180,8160,180C8000,180,7840,180,7680,180C7520,180,7360,180,7200,180C7040,180,6880,180,6720,180C6560,180,6400,180,6240,180C6080,180,5920,180,5760,180C5600,180,5440,180,5280,180C5120,180,4960,180,4800,180C4640,180,4480,180,4320,180C4160,180,4000,180,3840,180C3680,180,3520,180,3360,180C3200,180,3040,180,2880,180C2720,180,2560,180,2400,180C2240,180,2080,180,1920,180C1760,180,1600,180,1440,180C1280,180,1120,180,960,180C800,180,640,180,480,180C320,180,160,180,80,180L0,180Z"/></svg>