<?xml version="1.0" standalone="no"?>
<svg xmlns:xlink="http://www.w3.org/1999/xlink" id="wave" style="transform:rotate(180deg); transition: 0.3s" viewBox="0 0 1440 180" version="1.1" xmlns="http://www.w3.org/2000/svg"><defs><linearGradient id="sw-gradient-0" x1="0" x2="0" y1="1" y2="0"><stop stop-color="rgba(57, 64, 71, 1)" offset="0%"/><stop stop-color="rgba(139, 139, 139, 1)" offset="100%"/></linearGradient></defs><path style="transform:translate(0, 0px); opacity:1" fill="url(#sw-gradient-0)" d="M0,54L80,69C160,84,320,114,480,105C640,96,800,48,960,45C1120,42,1280,84,1440,108C1600,132,1760,138,1920,132C2080,126,2240,108,2400,99C2560,90,2720,90,2880,96C3040,102,3200,114,3360,102C3520,90,3680,54,3840,33C4000,12,4160,6,4320,15C4480,24,4640,48,4800,69C4960,90,5120,108,5280,111C5440,114,5600,102,5760,96C5920,90,6080,90,6240,99C6400,108,6560,126,6720,138C6880,150,7040,156,7200,147C7360,138,7520,114,7680,111C7840,108,8000,126,8160,135C8320,144,8480,144,8640,144C8800,144,8960,144,9120,129C9280,114,9440,84,9600,75C9760,66,9920,78,10080,90C10240,102,10400,114,10560,114C10720,114,10880,102,11040,87C11200,72,11360,54,11440,45L11520,36L11520,180L11440,180C11360,180,11200,180,11040,180C10880,180,10720,180,10560,180C10400,180,10240,180,10080,180C9920,180,9760,180,9600,180C9440,180,9280,180,9120,180C8960,180,8800,180,8640,180C8480,180,8320,180,8160,180C8000,180,7840,180,7680,180C7520,180,7360,180,7200,180C7040,180,6880,180,6720,180C6560,180,6400,180,6240,180C6080,180,5920,180,5760,180C5600,180,5440,180,5280,180C5120,180,4960,180,4800,180C4640,180,4480,180,4320,180C4160,180,4000,180,3840,180C3680,180,3520,180,3360,180C3200,180,3040,180,2880,180C2720,180,2560,180,2400,180C2240,180,2080,180,1920,180C1760,180,1600,180,1440,180C1280,180,1120,180,960,180C800,180,640,180,480,180C320,180,160,180,80,180L0,180Z"/><defs><linearGradient id="sw-gradient-1" x1="0" x2="0" y1="1" y2="0"><stop stop-color="rgba(57, 64, 71, 1)" offset="0%"/><stop stop-color="rgba(57, 64, 71, 1)" offset="100%"/></linearGradient></defs><path style="transform:translate(0, 50px); opacity:0.9" fill="url(#sw-gradient-1)" d="M0,36L80,48C160,60,320,84,480,78C640,72,800,36,960,45C1120,54,1280,108,1440,117C1600,126,1760,90,1920,90C2080,90,2240,126,2400,120C2560,114,2720,66,2880,45C3040,24,3200,30,3360,48C3520,66,3680,96,3840,99C4000,102,4160,78,4320,63C4480,48,4640,42,4800,39C4960,36,5120,36,5280,48C5440,60,5600,84,5760,102C5920,120,6080,132,6240,135C6400,138,6560,132,6720,126C6880,120,7040,114,7200,120C7360,126,7520,144,7680,126C7840,108,8000,54,8160,27C8320,0,8480,0,8640,27C8800,54,8960,108,9120,123C9280,138,9440,114,9600,111C9760,108,9920,126,10080,132C10240,138,10400,132,10560,111C10720,90,10880,54,11040,36C11200,18,11360,18,11440,18L11520,18L11520,180L11440,180C11360,180,11200,180,11040,180C10880,180,10720,180,10560,180C10400,180,10240,180,10080,180C9920,180,9760,180,9600,180C9440,180,9280,180,9120,180C8960,180,8800,180,8640,180C8480,180,8320,180,8160,180C8000,180,7840,180,7680,180C7520,180,7360,180,7200,180C7040,180,6880,180,6720,180C6560,180,6400,180,6240,180C6080,180,5920,180,5760,180C5600,180,5440,180,5280,180C5120,180,4960,180,4800,180C4640,180,4480,180,4320,180C4160,180,4000,180,3840,180C3680,180,3520,180,3360,180C3200,180,3040,180,2880,180C2720,180,2560,180,2400,180C2240,180,2080,180,1920,180C1760,180,1600,180,1440,180C1280,180,1120,180,960,180C800,180,640,180,480,180C320,180,160,180,80,180L0,180Z"/></svg>