<?xml version="1.0" standalone="no"?>
<svg xmlns:xlink="http://www.w3.org/1999/xlink" id="wave" style="transform:rotate(180deg); transition: 0.3s" viewBox="0 0 1440 180" version="1.1" xmlns="http://www.w3.org/2000/svg"><defs><linearGradient id="sw-gradient-0" x1="0" x2="0" y1="1" y2="0"><stop stop-color="rgba(57, 64, 71, 1)" offset="0%"/><stop stop-color="rgba(139, 139, 139, 1)" offset="100%"/></linearGradient></defs><path style="transform:translate(0, 0px); opacity:1" fill="url(#sw-gradient-0)" d="M0,108L120,117C240,126,480,144,720,132C960,120,1200,78,1440,66C1680,54,1920,72,2160,66C2400,60,2640,30,2880,21C3120,12,3360,24,3600,45C3840,66,4080,96,4320,99C4560,102,4800,78,5040,78C5280,78,5520,102,5760,96C6000,90,6240,54,6480,45C6720,36,6960,54,7200,75C7440,96,7680,120,7920,114C8160,108,8400,72,8640,72C8880,72,9120,108,9360,114C9600,120,9840,96,10080,81C10320,66,10560,60,10800,54C11040,48,11280,42,11520,33C11760,24,12000,12,12240,6C12480,0,12720,0,12960,12C13200,24,13440,48,13680,48C13920,48,14160,24,14400,24C14640,24,14880,48,15120,54C15360,60,15600,48,15840,57C16080,66,16320,96,16560,93C16800,90,17040,54,17160,36L17280,18L17280,180L17160,180C17040,180,16800,180,16560,180C16320,180,16080,180,15840,180C15600,180,15360,180,15120,180C14880,180,14640,180,14400,180C14160,180,13920,180,13680,180C13440,180,13200,180,12960,180C12720,180,12480,180,12240,180C12000,180,11760,180,11520,180C11280,180,11040,180,10800,180C10560,180,10320,180,10080,180C9840,180,9600,180,9360,180C9120,180,8880,180,8640,180C8400,180,8160,180,7920,180C7680,180,7440,180,7200,180C6960,180,6720,180,6480,180C6240,180,6000,180,5760,180C5520,180,5280,180,5040,180C4800,180,4560,180,4320,180C4080,180,3840,180,3600,180C3360,180,3120,180,2880,180C2640,180,2400,180,2160,180C1920,180,1680,180,1440,180C1200,180,960,180,720,180C480,180,240,180,120,180L0,180Z"/><defs><linearGradient id="sw-gradient-1" x1="0" x2="0" y1="1" y2="0"><stop stop-color="rgba(57, 64, 71, 1)" offset="0%"/><stop stop-color="rgba(57, 64, 71, 1)" offset="100%"/></linearGradient></defs><path style="transform:translate(0, 50px); opacity:0.9" fill="url(#sw-gradient-1)" d="M0,162L120,138C240,114,480,66,720,39C960,12,1200,6,1440,9C1680,12,1920,24,2160,27C2400,30,2640,24,2880,30C3120,36,3360,54,3600,72C3840,90,4080,108,4320,111C4560,114,4800,102,5040,87C5280,72,5520,54,5760,66C6000,78,6240,120,6480,123C6720,126,6960,90,7200,75C7440,60,7680,66,7920,57C8160,48,8400,24,8640,21C8880,18,9120,36,9360,39C9600,42,9840,30,10080,33C10320,36,10560,54,10800,63C11040,72,11280,72,11520,75C11760,78,12000,84,12240,93C12480,102,12720,114,12960,123C13200,132,13440,138,13680,144C13920,150,14160,156,14400,147C14640,138,14880,114,15120,105C15360,96,15600,102,15840,96C16080,90,16320,72,16560,78C16800,84,17040,114,17160,129L17280,144L17280,180L17160,180C17040,180,16800,180,16560,180C16320,180,16080,180,15840,180C15600,180,15360,180,15120,180C14880,180,14640,180,14400,180C14160,180,13920,180,13680,180C13440,180,13200,180,12960,180C12720,180,12480,180,12240,180C12000,180,11760,180,11520,180C11280,180,11040,180,10800,180C10560,180,10320,180,10080,180C9840,180,9600,180,9360,180C9120,180,8880,180,8640,180C8400,180,8160,180,7920,180C7680,180,7440,180,7200,180C6960,180,6720,180,6480,180C6240,180,6000,180,5760,180C5520,180,5280,180,5040,180C4800,180,4560,180,4320,180C4080,180,3840,180,3600,180C3360,180,3120,180,2880,180C2640,180,2400,180,2160,180C1920,180,1680,180,1440,180C1200,180,960,180,720,180C480,180,240,180,120,180L0,180Z"/></svg>